<svg width="440" height="404" viewBox="0 0 440 404" fill="none" xmlns="http://www.w3.org/2000/svg">
<path d="M440 380.596H114.477V377.343H440V380.596Z" fill="black"/>
<path d="M47.0951 176.05C37.5687 177.057 35.9423 190.224 45.4686 193.167C54.995 196.187 70.9498 190.998 70.9498 190.998L85.6653 194.638C85.6653 194.638 59.1773 202.616 70.4851 205.017C81.8702 207.34 88.8407 195.49 88.8407 195.49C115.174 199.208 160.715 201.144 160.715 201.144L160.792 198.898C135.776 199.053 97.9799 194.329 97.9799 194.329C98.1348 183.098 85.1231 173.804 81.9477 177.909C78.6948 181.937 82.7996 185.422 87.2917 187.358C91.7064 189.217 94.8044 193.709 94.8044 193.709C82.7222 192.16 70.6399 188.055 70.6399 188.055C70.6399 188.055 56.6989 174.966 47.0951 176.05Z" fill="#FBDB82"/>
<path fill-rule="evenodd" clip-rule="evenodd" d="M70.9498 187.513C72.2664 187.9 82.6447 191.231 93.2554 192.857C92.0937 191.386 89.7701 189.139 86.9819 187.978C85.0457 187.126 80.5536 184.88 80.1663 181.317C80.0114 180.026 80.4245 178.735 81.4055 177.444C82.3349 176.283 83.9614 175.973 85.8976 176.515C90.4672 177.754 97.5152 184.105 98.522 192.237C98.5736 192.754 98.5995 193.244 98.5995 193.709C103.479 194.329 137.712 198.356 160.792 198.279H161.412L161.334 201.841H160.637C160.25 201.841 115.251 199.828 89.1506 196.187C87.8339 198.279 80.8634 207.805 70.3301 205.636C69.0135 205.327 67.2321 204.784 66.9998 203.468C66.69 200.447 77.4556 196.575 83.1869 194.716L70.9498 191.695C69.091 192.315 54.4529 196.652 45.2363 193.786C41.4412 192.625 38.9628 189.682 38.4981 186.041C38.1883 183.486 38.8854 180.852 40.5118 178.916C42.0608 176.902 44.3843 175.663 47.0176 175.353C56.4666 174.346 69.5557 186.196 70.9498 187.513ZM70.1753 188.597C70.0204 188.442 56.3117 175.663 47.1725 176.67C44.849 176.902 42.9128 177.987 41.5187 179.691C40.1246 181.394 39.505 183.641 39.8148 185.887C40.202 189.062 42.2932 191.54 45.6235 192.547C54.9176 195.413 70.5625 190.456 70.7174 190.379L70.9498 190.301L88.1437 194.561L85.8202 195.258C77.2232 197.814 68.1615 201.686 68.3164 203.313C68.3164 203.313 68.4713 203.855 70.6399 204.32C81.4055 206.566 88.2211 195.258 88.2986 195.181L88.5309 194.793L88.9182 194.871C113.16 198.201 154.286 200.215 160.095 200.447V199.595C135.311 199.595 98.2122 195.026 97.9024 194.948L97.2828 194.871V194.329C97.2828 193.709 97.257 193.064 97.2053 192.392C96.2759 185.112 89.8476 178.994 85.5878 177.754C84.581 177.522 83.1869 177.367 82.4124 178.296C81.6895 179.277 81.3797 180.233 81.483 181.162C81.7153 183.176 83.9614 185.19 87.5241 186.739C92.0937 188.675 95.2691 193.167 95.3466 193.322L96.1985 194.561L94.727 194.329C82.7222 192.78 70.485 188.752 70.4076 188.752L70.1753 188.597Z" fill="#00272E"/>
<path d="M89.5378 97.7483C94.3397 99.5296 101.233 102.937 101.233 102.937C88.2211 104.254 88.9956 103.325 76.3712 101.079C63.7469 98.7551 56.3891 102.086 55.4597 105.571C54.4528 109.133 57.3185 113.548 64.8311 112.696C72.4213 111.922 75.984 107.197 83.6515 106.578C91.3191 106.035 108.203 105.261 108.203 105.261C108.203 105.261 95.7338 107.739 90.3123 110.14C84.8908 112.541 85.278 119.125 96.7406 115.175C108.281 111.147 116.645 104.564 116.645 104.564C143.288 100.924 166.988 125.94 166.988 125.94L169.466 124.624C139.261 94.0307 109.055 102.008 109.055 102.008C109.055 102.008 105.492 93.4111 96.4308 89.616C87.2917 85.7435 84.8133 95.8895 89.5378 97.7483Z" fill="#FBDB82"/>
<path fill-rule="evenodd" clip-rule="evenodd" d="M88.8407 89.2288C90.0025 88.3768 92.4809 87.2151 96.6632 88.9964C104.718 92.4042 108.513 99.2973 109.443 101.311C113.702 100.382 142.049 95.8895 169.931 124.159L170.551 124.778L166.833 126.792L166.523 126.405C166.291 126.173 142.824 101.776 116.955 105.184C115.793 106.113 107.661 112.077 96.973 115.794C91.474 117.653 88.8408 117.111 87.6015 116.336C86.827 115.872 86.3623 115.175 86.2849 114.4C86.0525 112.619 87.6015 110.605 90.0025 109.521C92.6358 108.359 96.8956 107.197 100.536 106.268C95.0368 106.578 87.9113 106.965 83.6516 107.275C79.8565 107.507 77.1458 108.824 74.2801 110.218C71.5693 111.612 68.7037 112.929 64.9086 113.393C56.9313 114.245 53.6784 109.443 54.8401 105.416C55.9244 101.311 63.9018 98.1355 76.4487 100.459C79.082 100.924 81.1732 101.311 82.8771 101.698C88.7633 102.86 90.6996 103.247 98.8318 102.55C96.4309 101.388 92.4034 99.5296 89.3054 98.3679C87.7564 97.7483 86.827 96.4316 86.5947 94.6503C86.3623 92.5591 87.2143 90.468 88.8407 89.2288ZM89.6152 90.3131C88.376 91.2425 87.679 92.8689 87.9113 94.4954C88.0662 95.7346 88.7633 96.664 89.7701 97.1287C94.5721 98.91 101.465 102.318 101.543 102.395L103.634 103.402L101.31 103.635C90.9319 104.641 89.1505 104.332 82.6447 102.937C80.9408 102.628 78.8497 102.163 76.2164 101.698C63.7469 99.4522 56.9313 102.705 56.0793 105.726C55.2274 108.979 57.9381 112.774 64.7537 112.077C68.3165 111.689 70.9497 110.373 73.7379 109.056C76.6036 107.662 79.5467 106.268 83.5741 105.958C91.1642 105.338 107.971 104.564 108.203 104.564L108.358 105.881C108.203 105.881 95.8887 108.359 90.5446 110.76C88.4535 111.689 87.4466 113.238 87.6015 114.245C87.6532 114.658 87.8855 114.994 88.2986 115.252C88.9956 115.639 91.0868 116.414 96.5858 114.555C107.816 110.605 116.181 104.099 116.258 104.022L116.413 103.944H116.568C141.507 100.459 164.045 122.068 167.143 125.166L168.382 124.469C139.028 95.2699 109.52 102.628 109.21 102.705L108.668 102.86L108.436 102.318C108.358 102.24 104.873 93.8758 96.1211 90.1582C93.4878 89.0739 91.2417 89.0739 89.6152 90.3131Z" fill="#00272E"/>
<path d="M132.91 96.8964C161.566 110.063 195.102 149.253 195.102 149.253L236.228 145.767C236.228 145.767 209.895 88.4543 160.405 61.8114C110.914 35.1686 98.4446 81.0191 132.91 96.8964Z" fill="#AEE555"/>
<path d="M112.773 72.7319C113.547 82.723 121.138 92.1719 132.678 97.5159C160.869 110.45 194.328 149.33 194.638 149.717L195.645 148.865C195.335 148.401 161.644 109.366 133.22 96.2767C122.144 91.165 114.787 82.1034 114.09 72.6544C113.702 66.3035 116.258 60.8046 121.292 57.5517C129.889 51.9752 144.063 53.7566 160.095 62.3536C208.811 88.6092 235.377 145.458 235.609 146.077L236.848 145.458C236.538 144.915 209.818 87.6023 160.715 61.1918C138.099 49.1096 125.862 52.9821 120.595 56.3899C115.174 59.9526 112.308 65.9163 112.773 72.7319Z" fill="#00272E"/>
<path d="M217.098 149.562L218.26 148.943C192.159 99.762 133.762 74.2034 133.142 73.8936L132.678 75.1328C133.22 75.3652 191.23 100.846 217.098 149.562Z" fill="#00272E"/>
<path d="M152.582 84.969L153.899 84.6592C153.744 84.1945 150.878 72.4221 145.844 67.6202L144.915 68.627C149.639 73.1191 152.582 84.8916 152.582 84.969Z" fill="#00272E"/>
<path d="M150.026 101.079L149.717 102.318C157.849 104.022 171.17 98.5228 171.79 98.2904L171.248 97.0512C171.17 97.1287 157.771 102.628 150.026 101.079Z" fill="#00272E"/>
<path d="M183.95 108.049L185.266 107.972C185.266 107.739 185.189 106.655 184.956 104.951C184.259 99.1424 182.323 86.6729 178.141 80.0897L176.979 80.7867C182.246 89.0739 183.95 107.894 183.95 108.049Z" fill="#00272E"/>
<path d="M172.797 123.462C188.209 130.51 197.813 120.983 197.891 120.906L196.961 119.977C196.574 120.364 187.9 128.883 173.339 122.223L172.797 123.462Z" fill="#00272E"/>
<path d="M208.192 134.382L209.198 135.312C209.276 135.157 214.93 129.116 213.69 119.279C213.303 115.717 211.987 111.767 209.276 107.352L208.192 108.049C217.95 123.926 208.656 133.918 208.192 134.382Z" fill="#00272E"/>
<path d="M212.993 205.017L232.666 157.23C232.666 157.23 224.921 114.478 176.979 108.204C129.037 101.931 58.3254 136.551 58.3254 136.551C58.3254 136.551 127.024 242.348 212.993 205.017Z" fill="#00BF7D"/>
<path d="M57.3185 136.318L57.7058 136.938C57.9381 137.17 75.287 163.736 103.014 185.267C128.65 205.249 168.537 224.999 213.226 205.636L212.761 204.397C168.614 223.527 129.192 204.01 103.866 184.26C78.6948 164.665 62.043 140.965 59.2548 136.861C66.69 133.298 132.135 103.015 176.902 108.901C223.759 115.02 231.969 156.92 232.046 157.307L233.363 157.075C233.285 156.688 224.921 113.858 177.057 107.584C129.425 101.311 58.7126 135.621 58.0156 135.931L57.3185 136.318Z" fill="#00272E"/>
<path d="M207.262 180.697L207.417 179.381C158.081 174.424 66.3027 136.938 65.3733 136.628L64.8312 137.79C65.7606 138.177 157.771 175.741 207.262 180.697Z" fill="white"/>
<path d="M91.7064 147.704L92.8682 147.007C92.5584 146.542 85.5879 135.157 81.4055 131.129L80.4761 132.059C84.5035 136.009 91.629 147.549 91.7064 147.704Z" fill="white"/>
<path d="M112.076 155.449L113.238 154.829C112.773 154.055 102.007 135.157 96.0436 128.186L95.0368 129.038C100.923 135.854 111.998 155.294 112.076 155.449Z" fill="white"/>
<path d="M132.058 162.264L133.22 161.722C133.142 161.49 122.377 137.558 111.534 122.92L110.449 123.694C121.215 138.177 131.903 162.032 132.058 162.264Z" fill="white"/>
<path d="M152.118 168.46L153.434 168.15C153.357 167.996 149.329 148.556 129.657 117.576L128.573 118.273C148.09 149.02 152.04 168.228 152.118 168.46Z" fill="white"/>
<path d="M174.501 174.346L175.817 174.501C175.817 174.424 176.282 170.551 175.43 164.046C174.191 153.59 169.776 136.396 155.371 117.033L154.286 117.885C177.366 148.788 174.501 174.114 174.501 174.346Z" fill="white"/>
<path d="M196.497 178.451L197.736 178.839C197.813 178.684 200.834 169.467 199.207 155.681C197.891 145.225 193.863 132.214 183.717 118.582L182.71 119.357C205.713 150.259 196.574 178.142 196.497 178.451Z" fill="white"/>
<path d="M81.3281 155.294L81.2507 156.61C87.4467 156.688 103.014 152.273 103.711 152.118L103.324 150.879C103.169 150.879 87.2918 155.371 81.3281 155.294Z" fill="white"/>
<path d="M91.5516 162.961L91.629 164.278C101.078 163.736 122.222 160.018 122.377 159.941L122.144 158.702C121.99 158.702 100.923 162.419 91.5516 162.961Z" fill="white"/>
<path d="M101.078 172.023L101.233 173.34C119.511 171.403 142.281 165.44 142.514 165.362L142.204 164.046C141.972 164.123 119.279 170.087 101.078 172.023Z" fill="white"/>
<path d="M113.238 183.718C148.168 177.832 162.186 170.939 162.264 170.861L161.721 169.699C161.567 169.777 147.78 176.515 113.005 182.401L113.238 183.718Z" fill="white"/>
<path d="M134.769 195.181C172.177 190.224 183.02 177.754 183.485 177.212L182.478 176.36C182.323 176.515 171.48 188.985 134.614 193.864L134.769 195.181Z" fill="white"/>
<path d="M159.553 205.481L159.785 206.798C196.187 201.377 207.804 180.543 207.959 180.388L206.797 179.691C206.643 179.923 195.257 200.137 159.553 205.481Z" fill="white"/>
<path d="M133.762 352.637C125.707 360.924 152.118 352.869 152.118 352.869L141.894 364.022C141.894 364.022 125.785 368.592 119.511 376.337C113.238 384.082 121.835 394.073 130.432 389.658C138.951 385.243 143.211 366.655 143.211 366.655C143.211 366.655 151.033 356.509 160.25 348.532C160.25 348.532 160.172 353.953 157.539 357.981C154.828 362.086 153.434 367.197 158.314 368.824C163.193 370.45 168.847 355.502 162.496 346.286C162.496 346.286 191.385 321.347 212.219 307.561L210.902 305.779C210.902 305.779 174.113 332.655 154.286 350.313C154.286 350.313 141.894 344.35 133.762 352.637Z" fill="#FBDB82"/>
<path fill-rule="evenodd" clip-rule="evenodd" d="M210.515 305.237L211.057 304.85L213.148 307.716L212.606 308.103C193.398 320.805 167.065 343.188 163.425 346.363C164.664 348.454 165.516 350.855 165.826 353.566C166.678 360.072 164.277 366.345 161.566 368.592C160.405 369.521 159.243 369.831 158.081 369.443C155.99 368.746 154.673 367.352 154.441 365.339C154.131 362.473 155.835 359.298 156.919 357.671C158.623 355.115 159.243 351.94 159.475 350.081C151.498 357.284 144.682 365.881 143.83 366.888C143.366 368.824 139.106 385.94 130.741 390.278C127.798 391.749 124.545 391.827 121.757 390.355C119.046 388.883 117.11 386.173 116.723 383.152C116.413 380.596 117.188 378.118 118.969 375.949C125.01 368.437 139.648 364.022 141.507 363.402L150.026 354.108C145.302 355.502 134.846 358.136 132.368 356.432C131.129 355.657 131.361 354.186 133.297 352.172C140.81 344.505 151.963 348.609 154.209 349.539C173.881 332.113 210.205 305.47 210.515 305.237ZM210.747 306.709C206.178 310.117 173.029 334.591 154.751 350.855L154.441 351.088L154.054 350.933C153.899 350.855 141.894 345.279 134.227 353.102C132.91 354.418 132.91 355.038 132.91 355.193C132.91 355.193 132.91 355.27 133.065 355.348C135.001 356.664 145.689 354.108 151.963 352.172L154.209 351.475L142.281 364.564L142.049 364.642C141.894 364.719 126.094 369.211 119.976 376.724C118.504 378.66 117.807 380.829 118.039 382.997C118.349 385.553 120.053 387.954 122.377 389.193C124.778 390.432 127.566 390.433 130.122 389.116C138.254 384.856 142.591 366.655 142.591 366.5L142.746 366.191C142.824 366.113 150.723 355.967 159.863 347.99L160.947 347.06V348.532C160.947 348.764 160.792 354.186 158.081 358.368C156.377 360.924 155.525 363.402 155.758 365.184C155.913 366.655 156.842 367.662 158.546 368.204C159.217 368.411 159.94 368.204 160.714 367.585C163.115 365.571 165.284 359.762 164.51 353.721C164.2 351.01 163.348 348.609 161.954 346.673L161.644 346.131L162.109 345.744C162.418 345.511 190.688 321.115 211.29 307.406L210.747 306.709Z" fill="#00272E"/>
<path d="M77.0684 251.487C77.0684 251.487 66.1479 244.052 51.5098 240.024C36.8717 236.074 36.9492 244.284 43.8422 246.84C50.8127 249.396 66.5351 251.332 66.5351 251.332C66.5351 251.332 45.4687 251.874 35.8648 251.797C26.3385 251.719 21.5366 246.22 12.0876 245.833C2.63872 245.446 -0.459303 251.177 1.01225 255.514C2.4838 259.774 11.8553 263.182 27.3453 259.309C42.8354 255.359 41.8285 254.275 58.0931 254.817C58.0931 254.74 49.8059 259.619 44.0746 262.33C38.2658 264.963 42.2932 277.433 53.2137 271.856C64.1342 266.28 67.8518 255.282 67.8518 255.282C67.8518 255.282 106.035 262.562 140.887 222.056L137.712 220.584C137.712 220.584 110.527 253.733 77.0684 251.487Z" fill="#FBDB82"/>
<path fill-rule="evenodd" clip-rule="evenodd" d="M137.247 220.12L137.557 219.732L141.972 221.823L141.429 222.443C108.978 260.161 73.1184 256.676 68.239 255.979C67.3871 258.302 63.3597 267.442 53.5235 272.398C49.1863 274.644 46.2432 274.025 44.4618 273.095C42.4481 272.011 41.054 269.92 40.8216 267.597C40.5118 264.963 41.5962 262.717 43.7648 261.71C47.7147 259.852 52.9039 256.986 55.6921 255.359C45.004 255.127 42.6804 255.824 35.4001 257.838C33.309 258.38 30.7531 259.077 27.5002 259.929C12.1651 263.801 2.09656 260.626 0.392655 255.669C-0.459297 253.191 0.0828543 250.48 1.94166 248.466C3.41321 246.84 6.43377 244.981 12.0876 245.136C16.8121 245.368 20.4523 246.84 23.9375 248.234C27.6551 249.706 31.1404 251.1 35.9423 251.177C41.6736 251.177 51.6647 251.022 58.7126 250.867C53.6784 250.015 47.4049 248.854 43.6099 247.459C40.8991 246.453 38.9629 244.516 38.7305 242.503C38.5756 241.418 38.9628 240.411 39.8148 239.714C41.8285 237.933 46.0108 237.856 51.6647 239.405C65.2959 243.122 75.9066 249.938 77.3007 250.79C109.907 252.881 136.937 220.507 137.247 220.12ZM137.867 221.359C134.691 225.154 108.436 254.275 77.0683 252.106H76.9134L76.7586 252.029C76.6037 251.952 65.6832 244.594 51.3549 240.721C43.9971 238.708 41.4413 240.024 40.6668 240.644C40.1504 241.109 39.9439 241.677 40.0471 242.348C40.202 243.587 41.5187 245.291 44.0746 246.22C50.8902 248.699 66.4577 250.712 66.6126 250.712L66.5351 252.029C66.3028 252.029 45.3912 252.494 35.8648 252.494C30.908 252.416 27.113 250.945 23.4728 249.473C20.065 248.079 16.5023 246.685 12.0102 246.453C6.89847 246.298 4.18771 247.924 2.9485 249.318C1.3995 250.945 0.934811 253.268 1.63186 255.282C2.94852 259 11.7778 262.562 27.1904 258.612C30.4433 257.838 32.9217 257.141 35.0129 256.521C42.9902 254.353 45.1589 253.733 58.093 254.12L60.4166 254.198L58.4028 255.359C58.3254 255.359 50.0382 260.239 44.3069 262.872C42.3706 263.801 41.906 265.815 42.1383 267.442C42.3707 269.378 43.4549 271.004 45.0814 271.934C46.553 272.708 49.1088 273.173 52.9039 271.237C63.5146 265.815 67.1547 255.127 67.2322 255.05L67.3871 254.507L67.9292 254.585C68.3165 254.662 105.802 261.246 139.803 222.288L137.867 221.359Z" fill="#00272E"/>
<path d="M159.94 360.149C131.438 385.321 156.61 425.595 196.342 385.786C236.074 346.054 244.748 283.551 244.748 283.551L204.396 292.071C204.396 292.071 183.562 339.238 159.94 360.149Z" fill="#AEE555"/>
<path d="M195.877 385.321C183.02 398.255 169.931 404.064 160.172 401.198C154.364 399.494 150.259 395.002 148.865 388.806C146.851 379.512 151.188 368.746 160.327 360.614C183.872 339.858 204.784 292.768 205.016 292.303L203.777 291.761C203.544 292.303 182.788 339.083 159.475 359.685C149.949 368.049 145.457 379.28 147.625 389.038C149.097 395.777 153.589 400.656 159.785 402.437C165.826 404.219 178.683 404.451 196.806 386.25C236.228 346.828 245.29 284.248 245.368 283.629L244.051 283.474C243.973 284.093 234.989 346.208 195.877 385.321Z" fill="#00272E"/>
<path d="M165.904 381.061L166.756 382.068C167.22 381.681 215.782 340.322 226.625 285.72L225.308 285.41C214.62 339.548 166.368 380.674 165.904 381.061Z" fill="#00272E"/>
<path d="M180.697 384.391C184.105 378.428 183.562 366.346 183.485 365.803L182.168 365.881C182.246 365.958 182.788 378.118 179.612 383.772L180.697 384.391Z" fill="#00272E"/>
<path d="M175.043 351.243C182.013 347.448 196.419 348.919 196.574 348.919L196.729 347.603C196.109 347.525 181.704 346.131 174.423 350.081L175.043 351.243Z" fill="#00272E"/>
<path d="M206.797 362.86L208.037 363.17C209.586 357.826 209.043 349.849 208.346 343.653C207.727 338.618 206.952 334.823 206.875 334.436L205.558 334.746C205.636 334.901 209.431 353.411 206.797 362.86Z" fill="#00272E"/>
<path d="M191.307 324.213C203.312 313.602 214.155 319.333 214.542 319.566L215.24 318.404C215.085 318.326 203.157 311.976 190.455 323.206L191.307 324.213Z" fill="#00272E"/>
<path d="M228.716 327.775L230.032 328.085C231.194 323.67 231.349 319.875 230.962 316.623C229.723 305.934 221.978 301.442 221.823 301.442L221.203 302.527C221.358 302.604 233.518 309.729 228.716 327.775Z" fill="#00272E"/>
<path d="M48.5667 349.616C48.5667 349.616 127.101 354.96 169.157 331.028C211.135 307.019 202.15 264.576 202.15 264.576L165.826 227.787C72.189 225.696 48.5667 349.616 48.5667 349.616Z" fill="#00BF7D"/>
<path d="M71.4919 287.579C53.9882 318.094 47.9471 349.229 47.8696 349.539L47.7147 350.236L48.4892 350.313C49.2637 350.391 127.721 355.348 169.466 331.57C205.868 310.814 204.242 275.806 203.157 266.667C203.002 265.273 202.847 264.499 202.847 264.421L201.531 264.731C201.608 265.118 209.895 307.019 168.769 330.409C129.657 352.792 57.4734 349.461 49.3412 348.997C50.348 344.117 56.7764 315.925 72.6537 288.198C88.6084 260.394 117.807 227.4 165.826 228.407L165.904 227.09C117.188 226.083 87.679 259.387 71.4919 287.579Z" fill="#00272E"/>
<path d="M55.0725 346.906C55.7695 346.208 126.636 276.813 170.396 253.578L169.776 252.416C125.862 275.729 54.8401 345.279 54.1431 345.976L55.0725 346.906Z" fill="white"/>
<path d="M71.9566 345.976C74.2801 340.632 76.4487 327.466 76.6036 326.923L75.287 326.691C75.287 326.846 73.0409 340.245 70.7949 345.434L71.9566 345.976Z" fill="white"/>
<path d="M86.6721 343.11C89.5378 334.436 92.4034 312.905 92.4809 311.975L91.1642 311.821C91.1642 311.975 88.2986 334.126 85.4329 342.723L86.6721 343.11Z" fill="white"/>
<path d="M102.937 342.181C107.506 324.522 108.358 298.267 108.358 298.034L107.042 297.957C107.042 298.267 106.19 324.29 101.698 341.871L102.937 342.181Z" fill="white"/>
<path d="M120.44 340.012L121.757 340.245C127.024 310.891 125.63 292.535 124.933 286.572C124.778 285.178 124.623 284.403 124.623 284.403L123.306 284.636C123.384 284.868 126.946 304.153 120.44 340.012Z" fill="white"/>
<path d="M144.45 330.641L145.767 330.951C149.949 314.841 150.026 301.442 148.865 291.374C147.161 277.743 143.056 270.152 142.978 270.075L141.817 270.695C141.972 270.927 154.131 293.233 144.45 330.641Z" fill="white"/>
<path d="M170.163 318.559L171.48 318.869C174.423 307.406 174.733 297.26 173.726 288.74C171.325 269.068 161.799 257.915 161.644 257.76L160.637 258.612C160.869 258.845 179.845 281.228 170.163 318.559Z" fill="#9DD0C2"/>
<path d="M62.74 323.593C68.239 321.27 84.6584 319.411 84.8133 319.411L84.6584 318.094C83.9614 318.172 67.9292 319.953 62.1979 322.354L62.74 323.593Z" fill="white"/>
<path d="M69.4007 312.595C78.2301 309.575 99.1416 305.082 99.2965 305.005L99.0642 303.688C98.8318 303.766 77.9203 308.258 68.936 311.356L69.4007 312.595Z" fill="white"/>
<path d="M74.7448 300.59C92.326 295.556 115.561 292.458 115.793 292.458L115.639 291.141C115.406 291.141 92.0162 294.239 74.3575 299.351L74.7448 300.59Z" fill="white"/>
<path d="M81.8702 286.494C116.181 278.827 131.593 279.834 131.748 279.834L131.826 278.517C131.671 278.517 116.103 277.433 81.5604 285.178L81.8702 286.494Z" fill="white"/>
<path d="M97.5152 267.751C133.452 258.38 148.245 265.738 148.4 265.815L149.02 264.653C148.4 264.344 133.684 256.908 97.2054 266.435L97.5152 267.751Z" fill="white"/>
<path d="M116.258 247.537C151.266 238.94 169.466 253.346 169.621 253.501L170.473 252.494C170.318 252.339 151.653 237.546 115.948 246.298L116.258 247.537Z" fill="white"/>
<path d="M277.974 15.4961C277.974 15.4961 275.651 -4.486 240.875 3.64627C215.782 9.45503 211.29 7.44133 211.29 7.44133C211.29 7.44133 214.078 16.503 224.534 18.9814C224.534 18.9814 206.41 16.6579 207.417 35.1685C208.501 53.6016 219.809 56.2349 219.964 64.7545C220.119 73.274 204.629 82.568 220.816 94.5728C237.08 106.578 273.25 128.264 297.182 92.7914C320.339 58.481 299.583 -0.0713415 277.974 15.4961Z" fill="black"/>
<path fill-rule="evenodd" clip-rule="evenodd" d="M301.054 24.7127C310.348 42.2939 311.742 72.8093 297.879 93.3336C289.049 106.423 277.664 113.083 264.033 113.083C250.944 113.083 236.228 107.12 220.351 95.2699C208.579 86.5954 212.761 78.8504 216.169 72.7319C217.718 69.8662 219.112 67.2329 219.112 64.7545C219.035 61.579 217.176 59.2555 214.93 56.3124C211.444 51.8978 207.185 46.3988 206.565 35.1685C206.255 29.8245 207.494 25.5647 210.283 22.5441C213.071 19.6785 216.711 18.5942 219.732 18.1295C212.606 14.5668 210.515 8.06096 210.438 7.75116C210.283 7.36391 210.438 7.0541 210.67 6.82175C210.902 6.5894 211.289 6.51195 211.599 6.66685C211.599 6.66685 212.374 6.89921 214.62 6.89921C218.337 6.89921 225.928 6.20215 240.643 2.71689C246.22 1.47769 251.331 0.78064 255.823 0.78064C273.017 0.78064 277.509 10.3845 278.594 14.0246C280.762 12.708 283.008 12.0109 285.254 12.0109C291.063 12.0109 296.64 16.503 301.054 24.7127ZM299.428 25.5647C293.697 14.6442 285.797 10.9266 278.516 16.1932C278.284 16.3481 277.897 16.4256 277.664 16.2707C277.354 16.1932 277.122 15.8834 277.122 15.5736C277.045 15.0315 275.263 2.56199 255.823 2.56199C251.486 2.56199 246.529 3.25905 241.108 4.49825C223.217 8.60311 215.704 8.83546 212.684 8.60311C213.923 11.159 217.253 16.3481 224.688 18.052C225.153 18.2069 225.463 18.6716 225.385 19.1363C225.308 19.601 224.843 19.9108 224.379 19.8334C224.379 19.8334 223.682 19.7559 222.675 19.7559C219.964 19.7559 214.93 20.2981 211.599 23.7833C209.121 26.4167 208.037 30.2117 208.346 35.0911C208.889 45.7017 212.993 50.9684 216.324 55.2281C218.725 58.2487 220.816 60.9594 220.893 64.7545C220.893 67.6976 219.344 70.5633 217.718 73.5838C214.388 79.7024 210.902 86.0533 221.358 93.8758C236.771 105.261 251.486 111.302 264.033 111.302C277.045 111.302 287.888 104.951 296.407 92.3268C309.884 72.3446 308.567 42.6812 299.428 25.5647Z" fill="black"/>
<path d="M293.851 60.8045L297.104 84.5817C297.104 84.5817 305.392 78.5406 303.145 66.381C301.829 59.333 293.851 60.8045 293.851 60.8045Z" fill="white"/>
<path d="M293.697 59.9526C293.232 60.03 292.922 60.4947 293 60.9594C293.077 61.4241 293.542 61.8114 294.084 61.6565C294.316 61.6565 301.132 60.4173 302.294 66.5359C304.385 77.9985 296.949 83.6524 296.64 83.8847C296.252 84.1171 296.098 84.6592 296.407 85.1239C296.562 85.3563 296.872 85.4337 297.104 85.4337C297.311 85.4337 297.492 85.3821 297.647 85.2788C298.034 85.0465 306.398 78.773 303.997 66.1486C302.836 59.9526 296.795 59.4104 293.697 59.9526Z" fill="black"/>
<path d="M296.175 135.854C285.642 130.82 254.739 131.517 237.777 139.339C220.893 147.161 224.533 163.891 229.645 185.19C234.834 207.03 258.689 238.94 259.618 281.228C260.47 323.516 258.224 378.118 258.224 378.118H338.695C338.695 378.118 340.399 225.696 308.722 160.715C302.371 147.704 302.293 138.719 296.175 135.854Z" fill="white"/>
<path fill-rule="evenodd" clip-rule="evenodd" d="M309.496 160.328C340.864 224.689 339.624 376.569 339.624 378.118C339.624 378.583 339.237 378.97 338.695 378.97H258.224C257.992 378.97 257.76 378.892 257.605 378.738C257.372 378.505 257.295 378.273 257.295 378.041C257.372 377.498 259.618 323.051 258.689 281.228C258.069 253.346 247.381 229.878 238.862 210.98C234.37 201.222 230.575 192.857 228.793 185.422C223.836 164.665 219.577 146.774 237.39 138.565C246.452 134.382 260.858 131.749 274.876 131.749C284.325 131.749 292.225 132.988 296.562 135.002C300.744 136.938 302.293 141.43 304.385 147.626C305.701 151.344 307.173 155.526 309.496 160.328ZM307.87 161.103C305.546 156.223 303.997 151.731 302.758 148.246C300.667 142.205 299.273 138.255 295.788 136.628C291.683 134.692 284.093 133.53 274.876 133.53C261.09 133.53 246.994 136.086 238.165 140.191C222.442 147.394 224.998 161.954 230.497 185.035C232.279 192.238 236.074 200.602 240.411 210.283C249.085 229.259 259.851 252.958 260.47 281.228C261.322 320.03 259.464 369.831 259.154 377.189H337.843C337.921 364.642 337.843 222.598 307.87 161.103Z" fill="black"/>
<path d="M222.055 77.3014C222.52 89.6934 231.891 93.7208 231.891 93.7208L229.878 69.8662C229.878 69.8662 221.745 70.176 222.055 77.3014Z" fill="white"/>
<path d="M232.279 92.9464C231.891 92.7915 223.372 88.919 222.907 77.3014C222.675 71.1054 229.568 70.7956 229.878 70.7956C230.42 70.7182 230.807 70.3309 230.73 69.8662C230.73 69.3241 230.265 68.9368 229.8 69.0143C226.702 69.0917 220.893 71.028 221.126 77.3014C221.59 90.1582 231.117 94.4179 231.581 94.5728C231.685 94.6245 231.788 94.6503 231.891 94.6503C232.279 94.6503 232.588 94.4179 232.743 94.1081C232.898 93.6434 232.743 93.1013 232.279 92.9464Z" fill="black"/>
<path d="M285.022 114.09L249.937 118.582C249.937 118.582 250.479 126.405 248.311 135.621C248.311 135.621 263.801 141.12 273.095 140.113C276.735 139.726 281.459 138.332 286.416 133.685C286.416 133.685 284.557 119.667 285.022 114.09Z" fill="white"/>
<path fill-rule="evenodd" clip-rule="evenodd" d="M287.268 133.53C287.346 133.84 287.191 134.15 286.958 134.305C282.776 138.255 278.207 140.423 273.172 140.965C272.398 141.069 271.572 141.12 270.694 141.12C261.322 141.12 248.543 136.628 248.078 136.473C247.614 136.318 247.381 135.854 247.459 135.466C249.55 126.405 249.085 118.737 249.085 118.66C249.008 118.195 249.395 117.73 249.86 117.73L284.945 113.238C285.254 113.187 285.487 113.264 285.642 113.471C285.874 113.626 285.952 113.935 285.952 114.168C285.409 119.589 287.268 133.453 287.268 133.53ZM285.409 133.298C285.177 130.974 283.86 120.674 284.093 115.097L250.867 119.357C250.944 121.525 250.944 127.799 249.395 135.079C252.261 136.009 262.871 139.339 270.694 139.339C271.468 139.339 272.243 139.313 273.017 139.262C277.509 138.719 281.614 136.783 285.409 133.298Z" fill="black"/>
<path d="M292.535 46.0115C287.81 24.0157 267.208 29.8245 267.208 29.8245C245.445 24.248 230.652 38.8087 229.645 46.2439C228.716 53.7566 228.948 75.2103 230.729 84.5043C232.743 94.5728 233.053 111.844 243.431 121.216C248.775 126.018 259.696 119.976 263.181 129.193C275.728 128.651 286.881 125.321 295.013 115.794C301.132 108.669 298.886 94.3405 298.189 84.5043C297.492 74.6681 294.626 55.5379 292.535 46.0115Z" fill="white"/>
<path fill-rule="evenodd" clip-rule="evenodd" d="M299.35 88.4543C300.202 97.9807 301.209 109.908 295.71 116.336C288.275 125.011 277.974 129.425 263.259 130.122C263.207 130.122 263.181 130.122 263.181 130.122C262.794 130.122 262.484 129.89 262.329 129.503C260.548 124.701 256.598 124.546 252.028 124.314C248.698 124.236 245.29 124.081 242.812 121.835C234.215 114.09 232.356 101.388 230.884 91.165C230.575 88.8415 230.265 86.5955 229.878 84.6592C228.019 75.0554 227.786 53.6017 228.793 46.1665C229.645 39.7381 240.256 27.7333 257.605 27.7333C260.703 27.7333 263.956 28.1206 267.209 28.9725C267.906 28.7402 270.229 28.2755 273.172 28.2755C279.291 28.2755 290.134 30.5215 293.464 45.8567C295.4 54.9184 298.344 74.2035 299.041 84.4269C299.144 85.7177 299.247 87.0602 299.35 88.4543ZM297.569 88.6092C297.466 87.2151 297.363 85.8726 297.259 84.5818C296.562 74.3584 293.619 55.3056 291.683 46.2439C288.817 32.8451 279.988 30.0568 273.172 30.0568C269.919 30.0568 267.518 30.6764 267.441 30.7539C267.286 30.7539 267.131 30.7539 266.976 30.7539C263.801 29.9019 260.625 29.5147 257.605 29.5147C241.495 29.5147 231.272 40.6675 230.575 46.3988C229.645 53.6017 229.8 75.0554 231.581 84.3494C231.969 86.2857 232.356 88.5317 232.666 90.9327C234.137 100.846 235.919 113.238 243.973 120.519C245.987 122.377 248.93 122.455 252.106 122.61C256.443 122.765 261.4 122.92 263.801 128.264C277.664 127.567 287.346 123.384 294.394 115.175C299.428 109.288 298.421 97.8258 297.569 88.6092Z" fill="black"/>
<path fill-rule="evenodd" clip-rule="evenodd" d="M298.189 84.5043C298.886 94.3405 301.132 108.669 295.013 115.794C286.881 125.321 275.728 128.651 263.181 129.193C259.696 119.976 248.775 126.018 243.431 121.216C233.982 112.619 232.821 97.5159 231.194 87.2925C234.137 88.919 237.623 89.9258 241.805 89.9258C249.395 89.9258 253.655 86.518 258.379 83.1102C262.097 80.4769 267.596 79.0053 273.327 79.8573C277.664 80.5543 280.84 82.9553 286.416 82.9553C290.908 82.9553 294.703 81.7935 297.724 79.8573C297.879 81.6386 298.111 83.1876 298.189 84.5043ZM282.079 87.9895C280.762 86.0533 278.129 85.0464 276.038 86.3631C274.799 87.2151 273.482 87.9121 272.165 88.6092C271.856 88.7641 271.546 88.919 271.236 89.0739C271.133 89.1255 271.029 89.1513 270.926 89.1513C270.307 89.3837 269.687 89.6935 269.067 89.8484C268.448 90.0549 267.802 90.2356 267.131 90.3905C266.821 90.4938 266.486 90.5712 266.124 90.6229C266.047 90.6229 265.737 90.7003 265.505 90.7003C265.35 90.7003 265.04 90.7778 264.963 90.7778C264.601 90.7778 264.24 90.8036 263.878 90.8552C263.104 90.8552 262.303 90.8552 261.477 90.8552C259.231 90.7778 256.985 92.9464 257.14 95.2699C257.217 97.6708 259.076 99.6071 261.477 99.6845C264.808 99.762 268.215 99.3747 271.391 98.3679C274.644 97.361 277.664 95.812 280.453 94.0307C282.389 92.7915 283.396 90.0033 282.079 87.9895Z" fill="black"/>
<path fill-rule="evenodd" clip-rule="evenodd" d="M299.35 88.4543C300.202 97.9806 301.209 109.908 295.71 116.336C288.275 125.011 277.974 129.425 263.259 130.122C263.207 130.122 263.181 130.122 263.181 130.122C262.794 130.122 262.484 129.89 262.329 129.503C260.548 124.701 256.598 124.546 252.028 124.314C248.698 124.236 245.29 124.081 242.812 121.835C234.215 114.09 232.356 101.388 230.884 91.165C230.73 89.8742 230.549 88.6092 230.342 87.37C230.265 87.0602 230.42 86.7504 230.729 86.518C230.962 86.3631 231.349 86.2857 231.659 86.518C234.602 88.1445 238.01 88.9964 241.805 88.9964C248.698 88.9964 252.803 86.0533 257.14 82.9553L257.837 82.4132C261.942 79.47 267.983 78.1534 273.482 79.0054C275.263 79.3152 276.89 79.8573 278.439 80.3995C280.762 81.174 283.163 82.0259 286.416 82.0259C290.521 82.0259 294.161 81.0191 297.259 79.0828C297.492 78.9279 297.801 78.9279 298.111 79.0054C298.344 79.1603 298.576 79.47 298.576 79.7024C298.808 81.5612 298.963 83.1102 299.041 84.4269C299.144 85.7177 299.247 87.0602 299.35 88.4543ZM297.569 88.6092C297.466 87.2151 297.362 85.8726 297.259 84.5818C297.208 83.6007 297.104 82.5164 296.949 81.3289C293.851 82.9553 290.289 83.8073 286.416 83.8073C282.853 83.8073 280.298 82.9553 277.819 82.0259C276.27 81.5612 274.799 81.0191 273.25 80.7867C268.138 79.9347 262.639 81.174 258.921 83.8847L258.147 84.3494C253.577 87.6798 249.318 90.7778 241.805 90.7778C238.397 90.7778 235.222 90.1582 232.356 88.8415C232.459 89.5128 232.562 90.2098 232.666 90.9327C234.137 100.846 235.919 113.161 243.973 120.519C245.987 122.377 248.93 122.455 252.106 122.61C256.443 122.765 261.4 122.92 263.801 128.264C277.664 127.567 287.346 123.384 294.394 115.175C299.428 109.288 298.421 97.8257 297.569 88.6092Z" fill="black"/>
<path fill-rule="evenodd" clip-rule="evenodd" d="M282.776 87.5248C283.473 88.5317 283.705 89.9258 283.396 91.2425C283.086 92.6366 282.156 93.9532 280.917 94.7277C277.664 96.8189 274.644 98.2904 271.701 99.2198C268.835 100.072 265.737 100.536 262.407 100.536C262.097 100.536 261.787 100.536 261.477 100.536C258.612 100.459 256.366 98.213 256.211 95.2699C256.133 94.0307 256.675 92.6366 257.682 91.6297C258.689 90.5454 260.083 89.9258 261.4 89.9258H261.555C262.329 89.9774 263.104 89.9774 263.878 89.9258C264.24 89.9258 264.575 89.9 264.885 89.8484H265.272L265.66 90.7003L265.582 89.7709L265.969 89.6935C266.279 89.6418 266.589 89.5902 266.899 89.5385C267.57 89.3836 268.215 89.2029 268.835 88.9964C269.196 88.8931 269.558 88.764 269.919 88.6091L270.616 88.3768L271.236 89.0739L270.849 88.2219C271.159 88.1186 271.468 87.9895 271.778 87.8346C272.94 87.215 274.102 86.518 275.573 85.666C277.897 84.1945 281.227 85.1239 282.776 87.5248ZM281.305 88.4542C280.298 86.8278 278.052 86.2082 276.503 87.1376C275.031 88.067 273.792 88.764 272.553 89.3836C272.243 89.5385 271.933 89.6935 271.623 89.8484C271.546 89.8484 271.236 90.0033 271.236 90.0033L270.539 90.313C270.126 90.4679 269.739 90.597 269.377 90.7003C268.706 90.9068 268.035 91.0876 267.363 91.2425C267.002 91.3457 266.641 91.4232 266.279 91.4748L265.814 91.5523C265.814 91.5523 265.505 91.6297 265.427 91.6297H265.04C264.679 91.6813 264.317 91.7072 263.956 91.7072C263.13 91.7588 262.303 91.7588 261.477 91.7072L261.4 90.8552V91.7072C260.548 91.7072 259.618 92.1719 258.921 92.8689C258.302 93.566 257.992 94.4179 257.992 95.1924C258.069 97.2061 259.541 98.7551 261.555 98.7551H262.407C265.582 98.7551 268.525 98.3679 271.159 97.5159C273.947 96.5865 276.812 95.1924 279.988 93.2562C280.84 92.714 281.459 91.7846 281.692 90.8552C281.847 90.2356 281.847 89.3062 281.305 88.4542Z" fill="black"/>
<path d="M276.735 86.6729C270.926 93.2562 262.794 93.7209 262.716 93.7209C262.252 93.7209 261.865 94.1081 261.865 94.6503C261.942 95.115 262.329 95.5022 262.794 95.5022C263.181 95.5022 271.778 95.0375 278.052 87.8346C278.361 87.4474 278.361 86.9053 277.974 86.5955C277.587 86.2082 277.045 86.2856 276.735 86.6729Z" fill="black"/>
<path d="M282.699 46.7861C273.637 43.7655 268.448 45.6243 268.215 45.7018C267.751 45.9341 267.518 46.3988 267.673 46.8635C267.906 47.3282 268.37 47.5606 268.835 47.4057C268.912 47.4057 273.714 45.7018 282.156 48.49C282.208 48.49 282.286 48.49 282.389 48.49C282.776 48.49 283.163 48.2576 283.241 47.8704C283.396 47.4057 283.163 46.941 282.699 46.7861Z" fill="black"/>
<path d="M252.106 43.688C251.873 43.688 246.375 42.991 238.242 48.0252C237.778 48.2576 237.7 48.7997 237.932 49.187C238.087 49.4968 238.397 49.6517 238.707 49.6517C238.862 49.6517 239.017 49.6001 239.172 49.4968C246.684 44.8498 251.796 45.4694 251.873 45.4694C252.338 45.5468 252.803 45.1596 252.88 44.6949C252.88 44.2302 252.57 43.7655 252.106 43.688Z" fill="black"/>
<path d="M246.374 63.2055C245.213 63.2055 244.283 64.1349 244.283 65.3741C244.283 66.5359 245.213 67.4653 246.374 67.4653C247.614 67.4653 248.543 66.5359 248.543 65.3741C248.543 64.1349 247.614 63.2055 246.374 63.2055Z" fill="black"/>
<path fill-rule="evenodd" clip-rule="evenodd" d="M249.395 65.3741C249.395 67.0006 248.078 68.3947 246.374 68.3947C244.748 68.3947 243.354 67.0006 243.354 65.3741C243.354 63.6702 244.748 62.3535 246.374 62.3535C248.078 62.3535 249.395 63.6702 249.395 65.3741ZM247.614 65.3741C247.614 64.677 247.072 64.1349 246.374 64.1349C245.677 64.1349 245.135 64.677 245.135 65.3741C245.135 65.9937 245.677 66.6133 246.374 66.6133C247.072 66.6133 247.614 65.9937 247.614 65.3741Z" fill="black"/>
<path d="M278.052 59.4879C276.812 59.4879 275.883 60.4947 275.883 61.6565C275.883 62.8182 276.812 63.8251 278.052 63.8251C279.213 63.8251 280.143 62.8182 280.143 61.6565C280.143 60.4947 279.213 59.4879 278.052 59.4879Z" fill="black"/>
<path fill-rule="evenodd" clip-rule="evenodd" d="M281.072 61.6565C281.072 63.2829 279.678 64.677 278.052 64.677C276.348 64.677 275.031 63.2829 275.031 61.6565C275.031 59.9526 276.348 58.6359 278.052 58.6359C279.678 58.6359 281.072 59.9526 281.072 61.6565ZM279.291 61.6565C279.291 60.9594 278.671 60.4173 278.052 60.4173C277.354 60.4173 276.735 60.9594 276.735 61.6565C276.735 62.3535 277.354 62.8957 278.052 62.8957C278.671 62.8957 279.291 62.3535 279.291 61.6565Z" fill="black"/>
<path d="M238.63 138.332C238.63 138.332 209.431 136.861 192.469 144.683C175.585 152.506 169.312 163.891 174.423 185.19C179.612 207.03 203.467 238.94 204.319 281.228C205.248 323.516 203.002 378.118 203.002 378.118H283.473C283.473 378.118 281.537 229.878 249.86 164.898C243.509 151.963 238.63 138.332 238.63 138.332Z" fill="white"/>
<path fill-rule="evenodd" clip-rule="evenodd" d="M250.634 164.51C282.002 228.949 284.325 376.569 284.402 378.041C284.402 378.299 284.299 378.531 284.093 378.738C283.938 378.892 283.705 378.97 283.473 378.97H203.002C202.77 378.97 202.538 378.892 202.383 378.738C202.15 378.505 202.073 378.273 202.073 378.041C202.15 377.498 204.396 323.051 203.467 281.228C202.847 253.346 192.159 229.878 183.562 210.98C179.148 201.222 175.353 192.857 173.571 185.422C168.537 164.588 174.113 152.196 192.082 143.909C204.396 138.177 222.984 137.325 232.898 137.325C236.461 137.325 238.707 137.48 238.707 137.48C239.017 137.48 239.326 137.713 239.481 138.022C239.481 138.177 244.438 151.731 250.634 164.51ZM282.544 377.189C282.311 364.719 278.981 226.703 249.008 165.285C243.509 153.9 239.017 141.895 238.01 139.184C237.158 139.184 235.377 139.107 232.898 139.107C223.139 139.107 204.861 139.959 192.856 145.535C175.585 153.512 170.473 164.898 175.275 185.035C177.057 192.238 180.852 200.602 185.189 210.283C193.863 229.259 204.629 252.958 205.248 281.228C206.1 320.03 204.164 369.831 203.932 377.189H282.544Z" fill="black"/>
<path d="M293.542 134.227C293.542 134.227 319.487 185.19 319.487 274.877C319.487 364.564 320.959 378.041 320.959 378.041H373.625C373.625 378.041 366.887 198.046 354.65 162.806C342.568 127.954 293.542 134.227 293.542 134.227Z" fill="white"/>
<path d="M362.55 209.277C362.085 209.354 361.698 209.819 361.775 210.283C368.436 271.701 372.308 366.81 372.696 377.189H321.811C321.501 373.239 320.417 352.559 320.417 274.877C320.417 193.322 298.731 143.134 294.936 135.002C302.526 134.382 343.187 132.369 353.798 163.039C353.953 163.503 354.495 163.736 354.96 163.581C355.424 163.426 355.657 162.961 355.502 162.497C343.342 127.412 293.929 133.298 293.464 133.375C293.154 133.453 292.922 133.608 292.767 133.84C292.69 134.072 292.612 134.382 292.767 134.692C293.077 135.157 318.635 186.429 318.635 274.877C318.635 363.635 320.03 378.041 320.107 378.195C320.107 378.66 320.494 378.97 320.959 378.97H373.625C373.857 378.97 374.09 378.892 374.245 378.66C374.477 378.505 374.554 378.273 374.554 378.041C374.477 377.034 370.605 274.877 363.557 210.129C363.479 209.586 363.092 209.277 362.55 209.277Z" fill="black"/>
<path d="M260.78 76.6044C260.315 75.9848 260.703 74.6681 260.858 74.2808L259.231 73.5838C259.076 73.8936 258.224 76.0622 259.309 77.6112C259.877 78.4373 260.832 78.8504 262.174 78.8504C262.381 78.8504 262.587 78.8246 262.794 78.773L262.639 76.9916C262.019 77.0691 261.09 77.0691 260.78 76.6044Z" fill="black"/>
<path d="M238.629 138.332C240.023 142.36 257.372 156.688 259.541 155.913C263.104 147.007 271.313 140.268 271.313 140.268C258.457 138.41 248.698 132.601 248.698 132.601L238.629 138.332Z" fill="white"/>
<path fill-rule="evenodd" clip-rule="evenodd" d="M272.165 140.036C272.243 140.346 272.165 140.733 271.856 140.965C271.778 140.965 263.801 147.626 260.393 156.223C260.315 156.456 260.161 156.61 259.851 156.688C259.773 156.765 259.464 156.843 259.386 156.843C255.978 156.843 239.249 142.747 237.777 138.642C237.623 138.255 237.855 137.79 238.165 137.558L248.311 131.826C248.543 131.671 248.93 131.671 249.163 131.826C249.24 131.904 258.921 137.558 271.468 139.339C271.778 139.416 272.088 139.649 272.165 140.036ZM269.3 140.811C258.766 138.952 250.712 134.692 248.698 133.608L239.791 138.719C242.347 142.979 255.823 153.977 258.999 154.984C261.787 148.401 266.821 143.134 269.3 140.811Z" fill="black"/>
<path d="M286.339 132.059C286.339 132.059 281.459 138.332 275.883 139.881C275.883 139.881 288.352 147.316 293.077 152.97C293.077 152.97 295.865 143.134 293.542 134.227C293.542 134.227 291.141 132.059 286.339 132.059Z" fill="white"/>
<path fill-rule="evenodd" clip-rule="evenodd" d="M294.471 134.072C296.717 143.057 294.084 152.738 293.929 153.203C293.851 153.512 293.619 153.745 293.232 153.822C293.18 153.822 293.128 153.822 293.077 153.822C292.845 153.822 292.535 153.745 292.38 153.512C287.81 148.013 275.573 140.733 275.418 140.656C275.108 140.501 274.954 140.114 275.031 139.804C275.031 139.416 275.341 139.184 275.651 139.029C280.84 137.635 285.642 131.594 285.642 131.517C285.874 131.284 286.106 131.207 286.339 131.207C291.373 131.207 294.084 133.53 294.161 133.608C294.316 133.711 294.419 133.866 294.471 134.072ZM292.767 134.769C292.147 134.305 290.134 133.066 286.803 132.988C285.797 134.15 282.234 138.177 277.897 140.114C281.15 142.127 288.43 146.852 292.612 151.111C293.232 148.091 294.316 141.12 292.767 134.769Z" fill="black"/>
<path d="M264.653 245.368C262.794 245.368 261.245 246.917 261.245 248.776C261.245 250.635 262.794 252.106 264.653 252.106C266.511 252.106 267.983 250.635 267.983 248.776C267.983 246.917 266.511 245.368 264.653 245.368Z" fill="black"/>
<path fill-rule="evenodd" clip-rule="evenodd" d="M268.912 248.776C268.912 251.1 266.976 253.036 264.653 253.036C262.252 253.036 260.393 251.1 260.393 248.776C260.393 246.375 262.252 244.439 264.653 244.439C266.976 244.439 268.912 246.375 268.912 248.776ZM267.131 248.776C267.131 247.382 266.047 246.22 264.653 246.22C263.259 246.22 262.174 247.382 262.174 248.776C262.174 250.093 263.259 251.255 264.653 251.255C266.047 251.255 267.131 250.093 267.131 248.776Z" fill="black"/>
<path d="M269.764 295.788C267.906 295.788 266.434 297.337 266.434 299.196C266.434 301.055 267.906 302.604 269.764 302.604C271.701 302.604 273.172 301.055 273.172 299.196C273.172 297.337 271.701 295.788 269.764 295.788Z" fill="black"/>
<path fill-rule="evenodd" clip-rule="evenodd" d="M274.102 299.196C274.102 301.52 272.165 303.456 269.764 303.456C267.441 303.456 265.505 301.52 265.505 299.196C265.505 296.795 267.441 294.936 269.764 294.936C272.165 294.936 274.102 296.795 274.102 299.196ZM272.32 299.196C272.32 297.802 271.159 296.718 269.764 296.718C268.448 296.718 267.286 297.802 267.286 299.196C267.286 300.59 268.448 301.675 269.764 301.675C271.159 301.675 272.32 300.59 272.32 299.196Z" fill="black"/>
<path d="M272.32 346.363C270.462 346.363 268.99 347.835 268.99 349.771C268.99 351.63 270.462 353.102 272.32 353.102C274.179 353.102 275.728 351.63 275.728 349.771C275.728 347.835 274.179 346.363 272.32 346.363Z" fill="black"/>
<path fill-rule="evenodd" clip-rule="evenodd" d="M276.658 349.771C276.658 352.095 274.721 354.031 272.32 354.031C269.997 354.031 268.061 352.095 268.061 349.771C268.061 347.37 269.997 345.434 272.32 345.434C274.721 345.434 276.658 347.37 276.658 349.771ZM274.876 349.771C274.876 348.377 273.714 347.215 272.32 347.215C271.004 347.215 269.842 348.377 269.842 349.771C269.842 351.088 271.004 352.25 272.32 352.25C273.714 352.25 274.876 351.088 274.876 349.771Z" fill="black"/>
<path d="M343.729 147.084L317.551 220.894C329.324 245.988 337.998 254.895 337.998 254.895L321.346 253.268C321.346 253.268 315.46 291.451 313.369 296.021C313.369 296.021 337.456 304.153 354.65 304.153C386.172 304.153 391.129 292.536 391.129 258.922C391.129 223.76 369.985 162.652 343.729 147.084Z" fill="white"/>
<path d="M344.117 146.464C343.729 146.31 343.342 146.387 343.11 146.774C342.877 147.084 343.032 147.549 343.342 147.781C368.281 162.497 390.354 222.211 390.354 258.922C390.354 292.845 385.475 303.456 354.65 303.456C339.392 303.456 318.481 296.95 314.376 295.556C316.467 289.128 321.191 259.154 321.966 254.043L337.921 255.669C338.308 255.669 338.54 255.514 338.695 255.205C338.85 254.972 338.773 254.585 338.54 254.353C338.463 254.275 329.788 245.213 318.248 220.584C318.093 220.197 317.629 220.042 317.241 220.197C316.854 220.352 316.699 220.817 316.932 221.204C326.148 240.876 333.429 250.558 336.217 253.965L321.424 252.494C321.036 252.494 320.727 252.726 320.649 253.113C320.572 253.501 314.686 291.296 312.749 295.711C312.594 295.943 312.594 296.176 312.672 296.331C312.827 296.563 312.982 296.718 313.137 296.718C313.369 296.795 337.533 304.928 354.65 304.928C386.482 304.928 391.826 293.465 391.826 258.922C391.826 225.851 371.379 162.652 344.117 146.464Z" fill="black"/>
<path d="M139.039 336.09C126.344 336.09 115.81 325.826 115.81 312.861V154.039C115.81 141.074 126.344 130.81 139.039 130.81H304.073C316.768 130.81 327.302 141.074 327.302 154.039V312.861C327.302 325.826 316.768 336.09 304.073 336.09H139.039Z" fill="white"/>
<path fill-rule="evenodd" clip-rule="evenodd" d="M328.112 154.039V312.861C328.112 326.096 317.308 336.9 304.073 336.9H139.039C125.804 336.9 115 326.096 115 312.861V154.039C115 140.804 125.804 130 139.039 130H304.073C317.308 130 328.112 140.804 328.112 154.039ZM139.039 131.621C126.615 131.621 116.621 141.614 116.621 154.039V312.861C116.621 325.285 126.615 335.279 139.039 335.279H304.073C316.498 335.279 326.492 325.285 326.492 312.861V154.039C326.492 141.614 316.498 131.621 304.073 131.621H139.039Z" fill="black"/>
<path d="M115.81 154.85V154.039C115.81 141.074 126.344 130.81 139.039 130.81H304.073C316.768 130.81 327.302 141.074 327.302 154.039V154.85H115.81Z" fill="black"/>
<path fill-rule="evenodd" clip-rule="evenodd" d="M328.112 154.039V155.66H115V154.039C115 140.804 125.804 130 139.039 130H304.073C317.308 130 328.112 140.804 328.112 154.039ZM139.039 131.621C126.615 131.621 116.621 141.614 116.621 154.039H326.492C326.492 141.614 316.498 131.621 304.073 131.621H139.039Z" fill="black"/>
<path d="M131.206 143.505L137.149 149.448L137.959 148.637L132.017 142.695L131.206 143.505Z" fill="white"/>
<path d="M131.206 148.637L132.017 149.448L137.959 143.505L137.149 142.695L131.206 148.637Z" fill="white"/>
<path fill-rule="evenodd" clip-rule="evenodd" d="M150.114 145.936C150.114 148.097 148.493 149.988 146.332 149.988C144.171 149.988 142.28 148.097 142.28 145.936C142.28 143.775 144.171 142.155 146.332 142.155C148.493 142.155 150.114 143.775 150.114 145.936ZM149.033 145.936C149.033 144.586 147.953 143.235 146.332 143.235C144.711 143.235 143.361 144.586 143.361 145.936C143.361 147.557 144.711 148.907 146.332 148.907C147.953 148.907 149.033 147.557 149.033 145.936Z" fill="white"/>
<path d="M152.815 149.988H158.757V148.907H152.815V149.988Z" fill="white"/>
<path fill-rule="evenodd" clip-rule="evenodd" d="M222 188.208C197.262 188.208 177.208 208.262 177.208 233C177.208 257.738 197.262 277.792 222 277.792C246.738 277.792 266.792 257.738 266.792 233C266.792 208.262 246.738 188.208 222 188.208ZM203.377 232.874C202.156 231.653 200.178 231.653 198.957 232.874C197.737 234.094 197.737 236.073 198.957 237.293L211.457 249.793C212.678 251.013 214.657 251.013 215.877 249.793L245.043 220.626C246.264 219.406 246.264 217.427 245.043 216.207C243.823 214.987 241.845 214.987 240.624 216.207L213.667 243.164L203.377 232.874Z" fill="black"/>
</svg>
