<svg width="35" height="34" viewBox="0 0 35 34" fill="none" xmlns="http://www.w3.org/2000/svg">
<g clip-path="url(#clip0_4_33)">
<path d="M17.3141 30.4412C24.7375 30.4412 30.7553 24.4234 30.7553 17C30.7553 9.57664 24.7375 3.55882 17.3141 3.55882C9.89077 3.55882 3.87296 9.57664 3.87296 17C3.87296 24.4234 9.89077 30.4412 17.3141 30.4412Z" fill="#C5ED86" stroke="black"/>
<path opacity="0.8" d="M7.11743 16.2593C6.24052 15.7182 5.50643 15.1088 4.97006 14.5982C4.57085 14.2183 4.54062 14.8052 4.54062 15.6C4.54062 15.9206 4.64879 16.5735 5.40024 17.8487C6.46414 20.0882 5.82953 20.4045 5.82953 22.8155C5.82953 24.0588 9.02882 25.8589 10.6318 25.8589C12.1343 25.8589 12.269 23.0142 11.8397 20.2328C11.4104 17.4513 9.04927 17.4513 7.11743 16.2593Z" fill="#639C7F"/>
<path opacity="0.8" d="M18.8158 9.91291C20.3654 9.51413 21.1073 8.79695 21.362 8.36643C21.4263 8.25771 21.47 8.13734 21.5456 8.03613C22.3042 7.0203 24.2875 6.87026 26.9817 8.86777C28.9053 10.4707 30.8288 16.6556 28.9053 16.8825C27.2878 17.0732 27.1051 14.3007 25.2855 13.5376C23.4659 12.7745 23.4659 14.3007 24.2746 16.2085C25.0833 18.1163 23.6681 18.8793 23.4659 20.4056C23.2637 21.9318 21.0398 25.3657 19.8267 24.4118C18.6136 23.458 18.8158 20.2148 18.4115 18.4978C18.0071 16.7808 15.581 16.3993 15.1766 14.3007C14.7722 12.2022 16.5918 10.4852 18.8158 9.91291Z" fill="#639C7F"/>
<path opacity="0.8" d="M11.5936 5.34128C9.04606 6.488 7.73991 8.07532 6.46412 9.82951C5.62513 10.9831 5.94409 12.6165 7.37022 12.6459C8.67263 12.6728 10.076 12.252 10.9524 10.7913C12.8759 7.58541 14.4789 9.50894 15.12 8.22659C15.4437 7.57929 15.0186 6.55761 14.4728 5.67694C13.9534 4.83881 12.4927 4.93655 11.5936 5.34128Z" fill="#639C7F"/>
</g>
<defs>
<clipPath id="clip0_4_33">
<rect width="40" height="40" fill="white" transform="translate(-2.97998 -3)"/>
</clipPath>
</defs>
</svg>
